<svg width="67" height="67" viewBox="0 0 67 67" fill="none" xmlns="http://www.w3.org/2000/svg">
    <path
        d="M44.6668 63.5103H22.3334C6.28131 63.5103 6.28131 54.9957 6.28131 47.4582V44.6665C6.28131 38.4411 6.28131 31.4061 19.5418 31.4061C22.8639 31.4061 24.0922 32.2157 25.823 33.4998C25.9068 33.5836 26.0184 33.6394 26.1022 33.7511L28.9497 36.7661C31.3505 39.3065 35.7056 39.3065 38.1064 36.7661L40.9539 33.7511C41.0377 33.6673 41.1214 33.5836 41.2331 33.4998C42.9639 32.1877 44.1922 31.4061 47.5143 31.4061C60.7748 31.4061 60.7748 38.4411 60.7748 44.6665V47.4582C60.719 58.1224 55.331 63.5103 44.6668 63.5103ZM19.5418 35.5936C10.4688 35.5936 10.4688 38.4411 10.4688 44.6665V47.4582C10.4688 55.1074 10.4688 59.3228 22.3334 59.3228H44.6668C52.986 59.3228 56.5314 55.7774 56.5314 47.4582V44.6665C56.5314 38.4411 56.5314 35.5936 47.4585 35.5936C45.4485 35.5936 45.0297 35.8448 43.8293 36.7382L41.1214 39.6136C39.1114 41.7353 36.4035 42.9078 33.5001 42.9078C30.5968 42.9078 27.8889 41.7353 25.8789 39.6136L23.1709 36.7382C21.9705 35.8448 21.5518 35.5936 19.5418 35.5936Z"
        fill="#2D2933" />
    <path
        d="M53.0413 35.5932C51.8968 35.5932 50.9476 34.644 50.9476 33.4994V16.7494C50.9476 10.5239 50.9476 7.67641 41.8747 7.67641H25.1246C16.0517 7.67641 16.0517 10.5239 16.0517 16.7494V33.4994C16.0517 34.644 15.1025 35.5932 13.9579 35.5932C12.8133 35.5932 11.8642 34.644 11.8642 33.4994V16.7494C11.8642 10.5239 11.8642 3.4889 25.1246 3.4889H41.8747C55.1351 3.4889 55.1351 10.5239 55.1351 16.7494V33.4994C55.1351 34.644 54.1859 35.5932 53.0413 35.5932Z"
        fill="#2D2933" />
    <path
        d="M38.7471 27.8604H29.4509C28.3063 27.8604 27.3571 26.9113 27.3571 25.7667C27.3571 24.6221 28.3063 23.6729 29.4509 23.6729H38.7471C39.8917 23.6729 40.8409 24.6221 40.8409 25.7667C40.8409 26.9113 39.9196 27.8604 38.7471 27.8604Z"
        fill="#2D2933" />
    <path
        d="M41.0928 19.4857H27.1345C25.9899 19.4857 25.0407 18.5365 25.0407 17.3919C25.0407 16.2474 25.9899 15.2982 27.1345 15.2982H41.0928C42.2373 15.2982 43.1865 16.2474 43.1865 17.3919C43.1865 18.5365 42.2653 19.4857 41.0928 19.4857Z"
        fill="#2D2933" />
</svg>