<svg width="22" height="22" viewBox="0 0 22 22" fill="none" xmlns="http://www.w3.org/2000/svg">
<path fill-rule="evenodd" clip-rule="evenodd" d="M15.5823 13.3673L19.6287 17.4136L18.3323 18.71L16.499 16.8771L16.499 21.0812H14.6656L14.6656 16.8771L12.8323 18.71L11.536 17.4136L15.5823 13.3673ZM12.8333 1.83301L17.4167 6.41634L17.4167 13.8844L15.5882 12.056L15.5833 12.0608L15.5833 7.17573L12.0739 3.66634H4.58333V18.333H11.1798L12.8379 19.9912L13.754 19.0751L13.7543 20.1663L2.75 20.1663V1.83301H12.8333ZM11.9167 14.6663L11.9167 15.7274L11.1444 16.4997L5.5 16.4997V14.6663H11.9167ZM11.1719 5.49967L13.75 8.0778L8.07812 13.7497H5.5V11.1715L11.1719 5.49967ZM11.1714 7.44392L6.875 11.7403V12.3747H7.5075L11.8048 8.07734L11.1714 7.44392Z" fill="#2D2933"/>
</svg>
