<svg width="26" height="26" viewBox="0 0 26 26" fill="none" xmlns="http://www.w3.org/2000/svg">
    <rect width="26" height="26" rx="12" fill="#F7F7F7" />
    <path
        d="M12.083 5.66602H7.49967C6.52721 5.66602 5.59464 6.05232 4.907 6.73995C4.21937 7.42759 3.83301 8.36022 3.83301 9.33268V18.4993C3.83301 19.4718 4.21937 20.4045 4.907 21.092C5.59464 21.7797 6.52721 22.166 7.49967 22.166H17.583C19.6088 22.166 20.333 20.516 20.333 18.4993V13.916"
        stroke="#2D2933" stroke-width="1.375" stroke-linecap="round" stroke-linejoin="round" />
    <path
        d="M22.0505 7.28861L13.3055 16.0336C12.4347 16.9044 9.84966 17.3077 9.27216 16.7302C8.69466 16.1527 9.08883 13.5677 9.95966 12.6969L18.7139 3.94275C18.9297 3.70722 19.1911 3.51789 19.4822 3.38617C19.7732 3.25444 20.088 3.18303 20.4075 3.1763C20.7269 3.16959 21.0444 3.22765 21.3407 3.34701C21.6371 3.46637 21.9062 3.64457 22.1318 3.8708C22.3574 4.09703 22.5349 4.36662 22.6534 4.66331C22.7719 4.96001 22.8292 5.27763 22.8216 5.59705C22.814 5.91646 22.7417 6.23105 22.6092 6.52177C22.4767 6.81249 22.2867 7.07337 22.0505 7.28861Z"
        stroke="#2D2933" stroke-width="1.375" stroke-linecap="round" stroke-linejoin="round" />
</svg>