<svg width="172" height="172" viewBox="0 0 172 172" fill="none" xmlns="http://www.w3.org/2000/svg">
<path d="M86.0006 14.333C46.5123 14.333 14.334 46.5113 14.334 85.9997C14.334 125.488 46.5123 157.666 86.0006 157.666C125.489 157.666 157.667 125.488 157.667 85.9997C157.667 46.5113 125.489 14.333 86.0006 14.333ZM120.257 69.5163L79.6223 110.151C78.619 111.155 77.2573 111.728 75.824 111.728C74.3906 111.728 73.029 111.155 72.0257 110.151L51.744 89.8697C49.6656 87.7913 49.6656 84.3513 51.744 82.273C53.8223 80.1947 57.2623 80.1947 59.3406 82.273L75.824 98.7563L112.661 61.9197C114.739 59.8413 118.179 59.8413 120.257 61.9197C122.336 63.998 122.336 67.3663 120.257 69.5163Z" fill="#0836C1"/>
</svg>
