<svg width="22" height="22" viewBox="0 0 22 22" fill="none" xmlns="http://www.w3.org/2000/svg">
    <path
        d="M20.5806 6.03223H19.871V21.2903H19.1613V6.03223H18.4516V21.2903H17.7419V14.1935H17.0323V21.2903H16.3226V14.1935H15.6129V21.2903H14.9032V12.4193H14.1935V21.2903H13.4839V12.4193H12.7742V21.2903H12.0645V13.129H11.3548V21.2903H10.6452V13.129H9.93548V21.2903H9.22581V8.16126H8.51613V21.2903H7.80645V8.16126H7.09677V21.2903H6.3871V14.9032H5.67742V21.2903H4.96774V14.9032H4.25806V21.2903H3.54839V13.4838H2.83871V21.2903H2.12903V13.4838H1.41935V21.2903H0V22H22V21.2903H20.5806V6.03223Z"
        fill="#627193" />
    <path
        d="M2.48387 12.4199C3.85319 12.4199 4.96774 11.3053 4.96774 9.93602C4.96774 8.5667 3.85319 7.45215 2.48387 7.45215C1.11455 7.45215 0 8.5667 0 9.93602C0 11.3053 1.11455 12.4199 2.48387 12.4199ZM3.19355 11.5598C2.97568 11.6556 2.73652 11.7102 2.48387 11.7102C2.23123 11.7102 1.99206 11.6556 1.77419 11.5598V11.3554C1.77419 10.964 2.09248 10.6457 2.48387 10.6457C2.87526 10.6457 3.19355 10.964 3.19355 11.3554V11.5598ZM2.12903 9.58118C2.12903 9.38531 2.288 9.22634 2.48387 9.22634C2.67974 9.22634 2.83871 9.38531 2.83871 9.58118C2.83871 9.77705 2.67974 9.93602 2.48387 9.93602C2.288 9.93602 2.12903 9.77705 2.12903 9.58118ZM2.48387 8.16183C3.46216 8.16183 4.25806 8.95773 4.25806 9.93602C4.25806 10.354 4.1069 10.7333 3.86419 11.0367C3.78755 10.7046 3.59345 10.4193 3.32874 10.2213C3.46464 10.0428 3.54839 9.82247 3.54839 9.58118C3.54839 8.99428 3.07077 8.51666 2.48387 8.51666C1.89697 8.51666 1.41935 8.99428 1.41935 9.58118C1.41935 9.82247 1.5031 10.0428 1.639 10.2217C1.37429 10.4193 1.18019 10.705 1.10355 11.0371C0.860839 10.7333 0.709677 10.354 0.709677 9.93602C0.709677 8.95773 1.50558 8.16183 2.48387 8.16183Z"
        fill="#627193" />
    <path
        d="M8.16161 7.09665C9.53093 7.09665 10.6455 5.9821 10.6455 4.61278C10.6455 3.24345 9.53093 2.12891 8.16161 2.12891C6.79228 2.12891 5.67773 3.24345 5.67773 4.61278C5.67773 5.9821 6.79228 7.09665 8.16161 7.09665ZM8.87128 6.23652C8.65341 6.33233 8.41425 6.38697 8.16161 6.38697C7.90896 6.38697 7.6698 6.33233 7.45193 6.23652V6.03213C7.45193 5.64074 7.77022 5.32245 8.16161 5.32245C8.55299 5.32245 8.87128 5.64074 8.87128 6.03213V6.23652ZM7.80677 4.25794C7.80677 4.06207 7.96573 3.9031 8.16161 3.9031C8.35748 3.9031 8.51644 4.06207 8.51644 4.25794C8.51644 4.45381 8.35748 4.61278 8.16161 4.61278C7.96573 4.61278 7.80677 4.45381 7.80677 4.25794ZM8.16161 2.83858C9.1399 2.83858 9.9358 3.63449 9.9358 4.61278C9.9358 5.03078 9.78464 5.4101 9.54193 5.71349C9.46528 5.38136 9.27119 5.09607 9.00648 4.89807C9.14238 4.71958 9.22612 4.49923 9.22612 4.25794C9.22612 3.67104 8.74851 3.19342 8.16161 3.19342C7.5747 3.19342 7.09709 3.67104 7.09709 4.25794C7.09709 4.49923 7.18083 4.71958 7.31673 4.89842C7.05202 5.09607 6.85793 5.38171 6.78128 5.71384C6.53857 5.4101 6.38741 5.03078 6.38741 4.61278C6.38741 3.63449 7.18332 2.83858 8.16161 2.83858Z"
        fill="#627193" />
    <path
        d="M13.8384 11.3545C15.2077 11.3545 16.3222 10.2399 16.3222 8.87059C16.3222 7.50127 15.2077 6.38672 13.8384 6.38672C12.469 6.38672 11.3545 7.50127 11.3545 8.87059C11.3545 10.2399 12.469 11.3545 13.8384 11.3545ZM14.548 10.4943C14.3302 10.5901 14.091 10.6448 13.8384 10.6448C13.5857 10.6448 13.3466 10.5901 13.1287 10.4943V10.2899C13.1287 9.89856 13.447 9.58027 13.8384 9.58027C14.2298 9.58027 14.548 9.89856 14.548 10.2899V10.4943ZM13.4835 8.51575C13.4835 8.31988 13.6425 8.16091 13.8384 8.16091C14.0342 8.16091 14.1932 8.31988 14.1932 8.51575C14.1932 8.71162 14.0342 8.87059 13.8384 8.87059C13.6425 8.87059 13.4835 8.71162 13.4835 8.51575ZM13.8384 7.0964C14.8167 7.0964 15.6126 7.8923 15.6126 8.87059C15.6126 9.28859 15.4614 9.66791 15.2187 9.9713C15.142 9.63917 14.9479 9.35388 14.6832 9.15588C14.8191 8.9774 14.9029 8.75704 14.9029 8.51575C14.9029 7.92885 14.4253 7.45123 13.8384 7.45123C13.2515 7.45123 12.7738 7.92885 12.7738 8.51575C12.7738 8.75704 12.8576 8.9774 12.9935 9.15623C12.7288 9.35388 12.5347 9.63953 12.458 9.97165C12.2153 9.66791 12.0642 9.28859 12.0642 8.87059C12.0642 7.8923 12.8601 7.0964 13.8384 7.0964Z"
        fill="#627193" />
    <path
        d="M19.5161 4.96774C20.8854 4.96774 22 3.85319 22 2.48387C22 1.11455 20.8854 0 19.5161 0C18.1468 0 17.0322 1.11455 17.0322 2.48387C17.0322 3.85319 18.1468 4.96774 19.5161 4.96774ZM20.2258 4.10761C20.0079 4.20342 19.7687 4.25806 19.5161 4.25806C19.2635 4.25806 19.0243 4.20342 18.8064 4.10761V3.90323C18.8064 3.51184 19.1247 3.19355 19.5161 3.19355C19.9075 3.19355 20.2258 3.51184 20.2258 3.90323V4.10761ZM19.1613 2.12903C19.1613 1.93316 19.3202 1.77419 19.5161 1.77419C19.712 1.77419 19.8709 1.93316 19.8709 2.12903C19.8709 2.3249 19.712 2.48387 19.5161 2.48387C19.3202 2.48387 19.1613 2.3249 19.1613 2.12903ZM19.5161 0.709677C20.4944 0.709677 21.2903 1.50558 21.2903 2.48387C21.2903 2.90187 21.1391 3.28119 20.8964 3.58458C20.8198 3.25245 20.6257 2.96716 20.361 2.76916C20.4969 2.59068 20.5806 2.37032 20.5806 2.12903C20.5806 1.54213 20.103 1.06452 19.5161 1.06452C18.9292 1.06452 18.4516 1.54213 18.4516 2.12903C18.4516 2.37032 18.5353 2.59068 18.6712 2.76952C18.4065 2.96716 18.2124 3.25281 18.1358 3.58494C17.8931 3.28119 17.7419 2.90187 17.7419 2.48387C17.7419 1.50558 18.5378 0.709677 19.5161 0.709677Z"
        fill="#627193" />
</svg>