<svg width="157" height="157" viewBox="0 0 157 157" fill="none" xmlns="http://www.w3.org/2000/svg">
<path d="M111.208 130.834C111.208 119.995 96.5642 111.209 78.5 111.209C60.4357 111.209 45.7917 119.995 45.7917 130.834M137.375 111.212C137.375 103.164 129.302 96.2475 117.75 93.2194M19.625 111.212C19.625 103.164 27.6981 96.2475 39.25 93.2194M117.75 66.9618C121.765 63.3684 124.292 58.1463 124.292 52.334C124.292 41.4954 115.506 32.709 104.667 32.709C99.64 32.709 95.0556 34.5985 91.5833 37.7061M39.25 66.9618C35.2351 63.3684 32.7083 58.1463 32.7083 52.334C32.7083 41.4954 41.4948 32.709 52.3333 32.709C57.3596 32.709 61.9446 34.5985 65.4167 37.7061M78.5 91.584C67.6611 91.584 58.875 82.7979 58.875 71.959C58.875 61.1204 67.6611 52.334 78.5 52.334C89.3389 52.334 98.125 61.1204 98.125 71.959C98.125 82.7979 89.3389 91.584 78.5 91.584Z" stroke="#9ACD32" stroke-width="7" stroke-linecap="round" stroke-linejoin="round"/>
</svg>
