<svg width="80" height="80" viewBox="0 0 80 80" fill="none" xmlns="http://www.w3.org/2000/svg">
    <path
        d="M23.3913 47.9134C22.6956 47.9134 22.0869 47.3047 22.0869 46.609C22.0869 45.9134 22.6956 45.3047 23.3913 45.3047H56.6087C57.3043 45.3047 57.826 45.9134 57.826 46.609C57.826 47.3047 57.3043 47.9134 56.6087 47.9134H23.3913Z"
        fill="#0836C1" />
    <path
        d="M35.2174 41.3051C34.6957 41.8268 33.913 41.8268 33.3913 41.3051C32.8696 40.7833 32.8696 40.0007 33.3913 39.479L38.2609 34.6094C38.6957 34.0877 39.5652 34.0877 40.087 34.6094L43.3913 38.0007L51.4783 29.9138C52 29.392 52.7826 29.392 53.3044 29.9138C53.8261 30.4355 53.8261 31.2181 53.3044 31.7399L44.3478 40.6964C43.8261 41.2181 43.0435 41.2181 42.5217 40.6964L39.1304 37.392L35.2174 41.3051Z"
        fill="#9ACD32" />
    <path fill-rule="evenodd" clip-rule="evenodd"
        d="M53.826 29.3916L53.3043 31.2177L52.8695 33.1307L51.4782 31.7394L50.0869 30.4351L52 29.9133L53.826 29.3916Z"
        fill="#479DFF" />
    <path
        d="M55.0433 29.7394L54.0868 33.4785C53.9129 34.1742 53.2172 34.522 52.5216 34.3481C52.2607 34.2612 52.0868 34.1742 51.9129 34.0003L49.2172 31.3046C48.6955 30.7829 48.6955 30.0003 49.2172 29.4786C49.3911 29.3046 49.652 29.2177 49.8259 29.1307L53.4781 28.1742C54.1738 28.0003 54.8694 28.3481 55.0433 29.0438C55.1303 29.3046 55.1303 29.5655 55.0433 29.7394Z"
        fill="#9ACD32" />
    <path
        d="M29.6521 51.6526C29.6521 52.3483 29.1304 52.87 28.4347 52.87C27.6521 52.87 27.1304 52.3483 27.1304 51.6526V28.3483C27.1304 27.6526 27.6521 27.0439 28.4347 27.0439C29.1304 27.0439 29.6521 27.6526 29.6521 28.3483V51.6526Z"
        fill="#0836C1" />
</svg>