<svg width="22" height="22" viewBox="0 0 22 22" fill="none" xmlns="http://www.w3.org/2000/svg">
<path fill-rule="evenodd" clip-rule="evenodd" d="M10.3141 5.5H9.62793C9.24843 5.5 8.94043 5.808 8.94043 6.1875C8.94043 6.567 9.24843 6.875 9.62793 6.875H10.3168L10.3182 7.56388C10.3189 7.94338 10.6276 8.25069 11.0071 8.25C11.3866 8.24931 11.6939 7.94063 11.6932 7.56113L11.6918 6.875H12.3779C12.7574 6.875 13.0654 6.567 13.0654 6.1875C13.0654 5.808 12.7574 5.5 12.3779 5.5H11.6891L11.6877 4.81113C11.687 4.43163 11.3783 4.12431 10.9988 4.125C10.6193 4.12569 10.312 4.43438 10.3127 4.81388L10.3141 5.5Z" fill="#627193"/>
<path fill-rule="evenodd" clip-rule="evenodd" d="M17.875 6.1875V3.4375C17.875 2.89025 17.6578 2.36569 17.2707 1.97931C16.8843 1.59225 16.3597 1.375 15.8125 1.375C13.4317 1.375 8.56831 1.375 6.1875 1.375C5.64025 1.375 5.11569 1.59225 4.72931 1.97931C4.34225 2.36569 4.125 2.89025 4.125 3.4375V18.5625C4.125 19.1098 4.34225 19.6343 4.72931 20.0207C5.11569 20.4077 5.64025 20.625 6.1875 20.625C7.975 20.625 13.2798 20.625 15.8118 20.625C16.1913 20.625 16.4993 20.317 16.4993 19.9375C16.4993 19.558 16.1913 19.25 15.8118 19.25C13.2798 19.25 7.975 19.25 6.1875 19.25C6.00531 19.25 5.83 19.1778 5.70144 19.0486C5.57219 18.92 5.5 18.7447 5.5 18.5625V3.4375C5.5 3.25531 5.57219 3.08 5.70144 2.95144C5.83 2.82219 6.00531 2.75 6.1875 2.75H15.8125C15.9947 2.75 16.17 2.82219 16.2986 2.95144C16.4278 3.08 16.5 3.25531 16.5 3.4375V6.1875C16.5 6.567 16.808 6.875 17.1875 6.875C17.567 6.875 17.875 6.567 17.875 6.1875Z" fill="#627193"/>
<path fill-rule="evenodd" clip-rule="evenodd" d="M16.4882 9.76621C15.6914 10.0508 15.1201 10.8133 15.1201 11.7084C15.1201 12.849 16.0366 13.762 17.1771 13.762C17.5573 13.762 17.8701 14.07 17.8701 14.4501C17.8701 14.8296 17.5621 15.1376 17.1826 15.1376C16.8031 15.1376 16.4951 14.8296 16.4951 14.4501C16.4951 14.0706 16.1871 13.7626 15.8076 13.7626C15.4281 13.7626 15.1201 14.0706 15.1201 14.4501C15.1201 15.3453 15.6921 16.1084 16.4903 16.393L16.4869 17.1926C16.4855 17.5721 16.7921 17.8815 17.1716 17.8828C17.5511 17.8849 17.8605 17.5776 17.8619 17.1981L17.8653 16.3965C18.6683 16.1146 19.2451 15.3494 19.2451 14.4501C19.2451 13.3123 18.3142 12.387 17.1771 12.387C16.7997 12.387 16.4951 12.0858 16.4951 11.7084C16.4951 11.3289 16.8031 11.0209 17.1826 11.0209C17.5607 11.0209 17.8681 11.3268 17.8701 11.7043V11.7132C17.8729 12.09 18.1795 12.3959 18.5576 12.3959C18.9371 12.3959 19.2451 12.0879 19.2451 11.7084C19.2451 10.8085 18.6676 10.0426 17.8632 9.76139L17.8701 8.95083C17.8729 8.57133 17.5676 8.26127 17.1881 8.25783C16.8086 8.25508 16.4979 8.56102 16.4951 8.93983L16.4882 9.76621Z" fill="#627193"/>
<path fill-rule="evenodd" clip-rule="evenodd" d="M7.5625 11.7002H13.0625C13.442 11.7002 13.75 11.3922 13.75 11.0127C13.75 10.6332 13.442 10.3252 13.0625 10.3252H7.5625C7.183 10.3252 6.875 10.6332 6.875 11.0127C6.875 11.3922 7.183 11.7002 7.5625 11.7002Z" fill="#627193"/>
<path fill-rule="evenodd" clip-rule="evenodd" d="M7.5625 14.459H13.0625C13.442 14.459 13.75 14.151 13.75 13.7715C13.75 13.392 13.442 13.084 13.0625 13.084H7.5625C7.183 13.084 6.875 13.392 6.875 13.7715C6.875 14.151 7.183 14.459 7.5625 14.459Z" fill="#627193"/>
<path fill-rule="evenodd" clip-rule="evenodd" d="M7.5625 17.1953H13.0625C13.442 17.1953 13.75 16.8873 13.75 16.5078C13.75 16.1283 13.442 15.8203 13.0625 15.8203H7.5625C7.183 15.8203 6.875 16.1283 6.875 16.5078C6.875 16.8873 7.183 17.1953 7.5625 17.1953Z" fill="#627193"/>
</svg>
