<svg width="22" height="22" viewBox="0 0 22 22" fill="none" xmlns="http://www.w3.org/2000/svg">
    <path
        d="M11 5.72949C11.3797 5.72949 11.6875 6.0373 11.6875 6.41699V11.1738L13.2639 9.59755C13.5324 9.32906 13.9676 9.32906 14.2361 9.59755C14.5046 9.86604 14.5046 10.3013 14.2361 10.5698L11.4861 13.3198C11.3572 13.4487 11.1823 13.5212 11 13.5212C10.8177 13.5212 10.6428 13.4487 10.5139 13.3198L7.76386 10.5698C7.49538 10.3013 7.49538 9.86604 7.76386 9.59755C8.03234 9.32906 8.46765 9.32906 8.73613 9.59755L10.3125 11.1738V6.41699C10.3125 6.0373 10.6203 5.72949 11 5.72949Z"
        fill="#2D2933" />
    <path
        d="M6.64551 15.584C6.64551 15.2043 6.95332 14.8965 7.33301 14.8965H14.6663C15.046 14.8965 15.3538 15.2043 15.3538 15.584C15.3538 15.9637 15.046 16.2715 14.6663 16.2715H7.33301C6.95332 16.2715 6.64551 15.9637 6.64551 15.584Z"
        fill="#2D2933" />
    <path fill-rule="evenodd" clip-rule="evenodd"
        d="M10.9471 1.14648C8.83105 1.14648 7.17277 1.14647 5.8789 1.32042C4.55456 1.49848 3.50955 1.87004 2.6893 2.69028C1.86906 3.51052 1.4975 4.55554 1.31945 5.87989C1.14549 7.17374 1.1455 8.83203 1.14551 10.948V11.0533C1.1455 13.1693 1.14549 14.8275 1.31945 16.1214C1.4975 17.4457 1.86906 18.4908 2.6893 19.3111C3.50955 20.1313 4.55456 20.5028 5.8789 20.6809C7.17277 20.8548 8.83105 20.8548 10.9471 20.8548H11.0523C13.1683 20.8548 14.8266 20.8548 16.1204 20.6809C17.4448 20.5028 18.4898 20.1313 19.3101 19.3111C20.1303 18.4908 20.5018 17.4457 20.6799 16.1214C20.8538 14.8275 20.8538 13.1693 20.8538 11.0533V10.948C20.8538 8.83203 20.8538 7.17374 20.6799 5.87989C20.5018 4.55554 20.1303 3.51052 19.3101 2.69028C18.4898 1.87004 17.4448 1.49848 16.1204 1.32042C14.8266 1.14647 13.1683 1.14648 11.0523 1.14648H10.9471ZM3.66157 3.66255C4.18375 3.14036 4.89025 2.84071 6.06212 2.68316C7.25377 2.52294 8.81963 2.52148 10.9997 2.52148C13.1797 2.52148 14.7455 2.52294 15.9372 2.68316C17.1091 2.84071 17.8155 3.14036 18.3378 3.66255C18.86 4.18473 19.1597 4.89122 19.3171 6.0631C19.4774 7.25475 19.4788 8.82062 19.4788 11.0007C19.4788 13.1807 19.4774 14.7465 19.3171 15.9382C19.1597 17.1101 18.86 17.8165 18.3378 18.3387C17.8155 18.861 17.1091 19.1606 15.9372 19.3181C14.7455 19.4784 13.1797 19.4798 10.9997 19.4798C8.81963 19.4798 7.25377 19.4784 6.06212 19.3181C4.89025 19.1606 4.18375 18.861 3.66157 18.3387C3.13939 17.8165 2.83974 17.1101 2.68218 15.9382C2.52197 14.7465 2.52051 13.1807 2.52051 11.0007C2.52051 8.82062 2.52197 7.25475 2.68218 6.0631C2.83974 4.89122 3.13939 4.18473 3.66157 3.66255Z"
        fill="#2D2933" />
</svg>