<svg width="22" height="22" viewBox="0 0 22 22" fill="none" xmlns="http://www.w3.org/2000/svg">
    <path fill-rule="evenodd" clip-rule="evenodd"
        d="M8.72405 9.41607H5.69159C5.24663 9.41242 4.81843 9.58566 4.5012 9.89767C4.18396 10.2097 4.00367 10.6349 4 11.0799V17.3768C4.00823 18.303 4.76543 19.0473 5.69159 19.0395H8.72405C9.16897 19.0433 9.59722 18.8701 9.91447 18.558C10.2317 18.246 10.412 17.8208 10.4156 17.3757V11.0799C10.412 10.6349 10.2317 10.2097 9.91447 9.89767C9.59722 9.58566 9.16897 9.41242 8.72405 9.41607Z"
        stroke="#2D2933" stroke-width="1.60391" stroke-linecap="round" stroke-linejoin="round" />
    <path fill-rule="evenodd" clip-rule="evenodd"
        d="M8.72405 3.00065H5.69159C4.78406 2.97547 4.02736 3.6896 4 4.59707V5.68131C4.02736 6.58879 4.78406 7.30292 5.69159 7.27774H8.72405C9.63154 7.30292 10.3883 6.58879 10.4156 5.68131V4.59707C10.3883 3.6896 9.63154 2.97547 8.72405 3.00065Z"
        stroke="#2D2933" stroke-width="1.60391" stroke-linecap="round" stroke-linejoin="round" />
    <path fill-rule="evenodd" clip-rule="evenodd"
        d="M14.2458 12.6236H17.2772C17.7223 12.6275 18.1508 12.4544 18.4682 12.1424C18.7857 11.8303 18.9662 11.4049 18.9698 10.9598V4.66385C18.9662 4.2189 18.7859 3.79363 18.4687 3.48161C18.1514 3.16958 17.7232 2.99636 17.2782 3.00006H14.2458C13.8009 2.99636 13.3726 3.16958 13.0554 3.48161C12.7381 3.79363 12.5578 4.2189 12.5542 4.66385V10.9598C12.5578 11.4047 12.7381 11.8299 13.0554 12.142C13.3726 12.454 13.8009 12.6272 14.2458 12.6236Z"
        stroke="#2D2933" stroke-width="1.60391" stroke-linecap="round" stroke-linejoin="round" />
    <path fill-rule="evenodd" clip-rule="evenodd"
        d="M14.2458 19.0395H17.2772C18.1851 19.0652 18.9425 18.351 18.9698 17.443V16.3588C18.9425 15.4513 18.1857 14.7372 17.2782 14.7624H14.2458C13.3383 14.7372 12.5816 15.4513 12.5542 16.3588V17.442C12.5809 18.3499 13.3379 19.0646 14.2458 19.0395Z"
        stroke="#2D2933" stroke-width="1.60391" stroke-linecap="round" stroke-linejoin="round" />
</svg>