<svg width="22" height="22" viewBox="0 0 22 22" fill="none" xmlns="http://www.w3.org/2000/svg">
    <path
        d="M16.1879 19.9923H5.81122C4.80716 19.9923 3.84421 19.5934 3.13424 18.8835C2.42425 18.1734 2.02539 17.2105 2.02539 16.2064V5.82978C2.02539 4.82572 2.42425 3.86278 3.13424 3.15279C3.84421 2.44281 4.80716 2.04395 5.81122 2.04395H16.1879C17.1919 2.04395 18.1549 2.44281 18.8648 3.15279C19.5749 3.86278 19.9737 4.82572 19.9737 5.82978V16.2064C19.9737 17.2105 19.5749 18.1734 18.8648 18.8835C18.1549 19.5934 17.1919 19.9923 16.1879 19.9923ZM5.81122 3.41895C5.17183 3.41895 4.55863 3.67294 4.10651 4.12506C3.65439 4.57718 3.40039 5.19039 3.40039 5.82978V16.2064C3.40039 16.8458 3.65439 17.4591 4.10651 17.9112C4.55863 18.3633 5.17183 18.6173 5.81122 18.6173H16.1879C16.8273 18.6173 17.4405 18.3633 17.8926 17.9112C18.3447 17.4591 18.5987 16.8458 18.5987 16.2064V5.82978C18.5987 5.19039 18.3447 4.57718 17.8926 4.12506C17.4405 3.67294 16.8273 3.41895 16.1879 3.41895H5.81122Z"
        fill="#2D2933" />
    <path
        d="M14.4476 15.2543C14.3572 15.2552 14.2676 15.2378 14.1841 15.2032C14.1006 15.1685 14.0249 15.1173 13.9618 15.0526L6.94928 8.0401C6.88173 7.97715 6.82756 7.90125 6.78999 7.81692C6.75241 7.73259 6.7322 7.64155 6.73058 7.54924C6.72894 7.45693 6.74592 7.36524 6.78051 7.27963C6.81508 7.19403 6.86654 7.11626 6.93183 7.05098C6.99711 6.98569 7.07488 6.93423 7.16048 6.89965C7.24609 6.86507 7.33778 6.84809 7.43009 6.84972C7.5224 6.85135 7.61344 6.87155 7.69778 6.90913C7.78211 6.94671 7.85801 7.00088 7.92095 7.06843L14.9335 14.0809C15.0622 14.2098 15.1345 14.3846 15.1345 14.5668C15.1345 14.749 15.0622 14.9237 14.9335 15.0526C14.87 15.1168 14.7943 15.1678 14.7109 15.2025C14.6275 15.2371 14.5379 15.2547 14.4476 15.2543Z"
        fill="#2D2933" />
    <path
        d="M7.50913 15.1799C7.41857 15.1819 7.32859 15.165 7.24493 15.1303C7.16128 15.0955 7.08579 15.0437 7.0233 14.9782C6.95844 14.915 6.90689 14.8394 6.87169 14.756C6.83649 14.6726 6.81836 14.5829 6.81836 14.4924C6.81836 14.4018 6.83649 14.3121 6.87169 14.2287C6.90689 14.1453 6.95844 14.0697 7.0233 14.0065L14.0358 6.99403C14.1647 6.86528 14.3394 6.79297 14.5216 6.79297C14.7038 6.79297 14.8786 6.86528 15.0075 6.99403C15.1346 7.12564 15.2056 7.30146 15.2056 7.48445C15.2056 7.66743 15.1346 7.84326 15.0075 7.97486L7.99497 14.9782C7.93149 15.0425 7.85582 15.0934 7.77239 15.1281C7.68896 15.1626 7.59946 15.1803 7.50913 15.1799Z"
        fill="#2D2933" />
</svg>