<svg width="36" height="36" viewBox="0 0 36 36" fill="none" xmlns="http://www.w3.org/2000/svg">
    <path
        d="M27.9545 10.8194C28.3052 8.53332 27.9545 7.00927 26.7274 5.60245C25.3833 4.01979 22.9289 3.375 19.7733 3.375H10.7154C10.0726 3.375 9.54669 3.84394 9.42982 4.48873L5.63137 28.5218C5.57293 28.9907 5.92356 29.4011 6.39106 29.4011H12.0011L11.592 31.863C11.5336 32.2733 11.8258 32.625 12.2933 32.625H17.0267C17.6111 32.625 18.0786 32.2147 18.137 31.6871L19.1305 25.4737C19.1889 24.9461 19.7148 24.5358 20.2408 24.5358H20.942C25.5002 24.5358 29.1233 22.6601 30.1752 17.2673C30.5842 15.0398 30.4089 13.1055 29.2402 11.8159C28.8895 11.4056 28.4805 11.1125 27.9545 10.8194Z"
        fill="#009CDE" />
    <path
        d="M27.9545 10.8194C28.3052 8.53332 27.9545 7.00927 26.7274 5.60245C25.3833 4.01979 22.9289 3.375 19.7733 3.375H10.7154C10.0726 3.375 9.54669 3.84394 9.42982 4.48873L5.63137 28.5218C5.57293 28.9907 5.92356 29.4011 6.39106 29.4011H12.0011L13.3451 20.7257C13.462 20.0809 13.988 19.612 14.6308 19.612H17.3189C22.5783 19.612 26.6689 17.5018 27.8377 11.2883C27.8961 11.1711 27.8961 10.9952 27.9545 10.8194Z"
        fill="#012169" />
    <path
        d="M14.923 10.878C14.9814 10.4677 15.5073 9.94013 16.0333 9.94013H23.1627C23.9808 9.94013 24.7989 9.99875 25.5002 10.116C26.143 10.2332 27.3117 10.5263 27.8961 10.878C28.2467 8.59193 27.8961 7.06789 26.6689 5.66107C25.3833 4.01979 22.9289 3.375 19.7733 3.375H10.7154C10.0726 3.375 9.54669 3.84394 9.42982 4.48873L5.63137 28.5218C5.57293 28.9907 5.92356 29.4011 6.39106 29.4011H12.0011L14.923 10.878Z"
        fill="#003087" />
</svg>