<svg width="27" height="27" viewBox="0 0 27 27" fill="none" xmlns="http://www.w3.org/2000/svg">
    <g clip-path="url(#clip0_67_567)">
        <path
            d="M14.5673 13.2988C14.2314 13.411 13.873 13.4733 13.5 13.4733C13.1269 13.4733 12.7686 13.411 12.4326 13.2988C9.99252 13.6996 8.71545 15.493 8.71545 17.6693H13.5H18.2845C18.2845 15.493 17.0076 13.6996 14.5673 13.2988Z"
            fill="#2D2933" />
        <path
            d="M13.5 12.6975C14.9465 12.6975 16.1187 11.5247 16.1187 10.0784V9.33553C16.1187 7.88924 14.9465 6.7168 13.5 6.7168C12.0535 6.7168 10.8813 7.88924 10.8813 9.33553V10.0784C10.8813 11.5247 12.0535 12.6975 13.5 12.6975Z"
            fill="#2D2933" />
        <path
            d="M19.9546 0H7.04431C4.54745 0 2.51538 2.03249 2.51538 4.52983V22.4711C2.51538 24.9685 4.54745 27 7.04431 27H17.8915H18.5863L19.0777 26.5095L23.994 21.5931L24.4845 21.1022V20.4075V4.52983C24.4845 2.03249 22.4525 0 19.9546 0ZM22.8074 20.4074H20.2684C18.9563 20.4074 17.8915 21.4718 17.8915 22.7843V25.3229H7.04431C5.46935 25.3229 4.19254 24.0456 4.19254 22.4711V4.52983C4.19254 2.95444 5.46935 1.67711 7.04431 1.67711H19.9546C21.5301 1.67711 22.8074 2.95444 22.8074 4.52983V20.4074H22.8074Z"
            fill="#2D2933" />
    </g>
    <defs>
        <clipPath id="clip0_67_567">
            <rect width="27" height="27" fill="white" />
        </clipPath>
    </defs>
</svg>