<svg width="111" height="111" viewBox="0 0 111 111" fill="none" xmlns="http://www.w3.org/2000/svg">
    <path
        d="M90.1875 0H41.625C37.9451 0 34.416 1.46183 31.8139 4.06389C29.2118 6.66596 27.75 10.1951 27.75 13.875C24.0701 13.875 20.541 15.3368 17.9389 17.9389C15.3368 20.541 13.875 24.0701 13.875 27.75V97.125C13.875 100.805 15.3368 104.334 17.9389 106.936C20.541 109.538 24.0701 111 27.75 111H76.3125C79.9924 111 83.5215 109.538 86.1236 106.936C88.7257 104.334 90.1875 100.805 90.1875 97.125C93.8674 97.125 97.3965 95.6632 99.9986 93.0611C102.601 90.459 104.062 86.9299 104.062 83.25V13.875C104.062 10.1951 102.601 6.66596 99.9986 4.06389C97.3965 1.46183 93.8674 0 90.1875 0ZM90.1875 90.1875V27.75C90.1875 24.0701 88.7257 20.541 86.1236 17.9389C83.5215 15.3368 79.9924 13.875 76.3125 13.875H34.6875C34.6875 12.0351 35.4184 10.2705 36.7194 8.96945C38.0205 7.66841 39.7851 6.9375 41.625 6.9375H90.1875C92.0274 6.9375 93.792 7.66841 95.0931 8.96945C96.3941 10.2705 97.125 12.0351 97.125 13.875V83.25C97.125 85.0899 96.3941 86.8545 95.0931 88.1556C93.792 89.4566 92.0274 90.1875 90.1875 90.1875ZM20.8125 27.75C20.8125 25.9101 21.5434 24.1455 22.8444 22.8444C24.1455 21.5434 25.9101 20.8125 27.75 20.8125H76.3125C78.1524 20.8125 79.917 21.5434 81.2181 22.8444C82.5191 24.1455 83.25 25.9101 83.25 27.75V97.125C83.25 98.9649 82.5191 100.73 81.2181 102.031C79.917 103.332 78.1524 104.062 76.3125 104.062H27.75C25.9101 104.062 24.1455 103.332 22.8444 102.031C21.5434 100.73 20.8125 98.9649 20.8125 97.125V27.75Z"
        fill="#32CD94" />
</svg>