<svg width="22" height="6" viewBox="0 0 22 6" fill="none" xmlns="http://www.w3.org/2000/svg">
<path d="M11 0C9.48754 0 8.25003 1.2375 8.25003 2.75001C8.25003 4.26252 9.48754 5.50002 11 5.50002C12.5125 5.50002 13.7501 4.26252 13.7501 2.75001C13.7501 1.2375 12.5125 0 11 0ZM19.2501 0C17.7376 0 16.5001 1.2375 16.5001 2.75001C16.5001 4.26252 17.7376 5.50002 19.2501 5.50002C20.7626 5.50002 22.0001 4.26252 22.0001 2.75001C22.0001 1.2375 20.7626 0 19.2501 0ZM2.75001 0C1.2375 0 0 1.2375 0 2.75001C0 4.26252 1.2375 5.50002 2.75001 5.50002C4.26252 5.50002 5.50002 4.26252 5.50002 2.75001C5.50002 1.2375 4.26252 0 2.75001 0Z" fill="#2D2933"/>
</svg>
