<svg width="21" height="21" viewBox="0 0 21 21" fill="none" xmlns="http://www.w3.org/2000/svg">
<path d="M9.73509 1.91316C9.98298 1.44281 10.1069 1.20762 10.2725 1.13084C10.4166 1.06396 10.5829 1.06396 10.7272 1.13084C10.8928 1.20762 11.0167 1.44281 11.2646 1.91316L12.785 4.79784C12.8921 5.00092 12.9456 5.10246 13.0254 5.17007C13.0957 5.22977 13.1802 5.27044 13.2707 5.28823C13.3732 5.30838 13.486 5.28692 13.7116 5.24399L16.9149 4.63418C17.4371 4.53475 17.6983 4.48504 17.8616 4.5666C18.0038 4.63763 18.1074 4.76766 18.1451 4.92208C18.1883 5.09939 18.0817 5.34293 17.8685 5.83002L16.5612 8.81736C16.4691 9.02765 16.4232 9.13279 16.4199 9.23729C16.4171 9.32946 16.438 9.42089 16.4806 9.5028C16.5288 9.59551 16.6159 9.67029 16.7901 9.81985L19.264 11.9441C19.6674 12.2905 19.8691 12.4637 19.9071 12.6421C19.9403 12.7976 19.9032 12.9597 19.806 13.0854C19.6942 13.2298 19.4374 13.2983 18.9236 13.4353L15.773 14.2757C15.5511 14.3349 15.4402 14.3645 15.3566 14.4272C15.2828 14.4824 15.2243 14.5558 15.1868 14.6401C15.1444 14.7356 15.1402 14.8503 15.1318 15.0797L15.0135 18.3384C14.9943 18.8698 14.9847 19.1354 14.8688 19.2764C14.7679 19.3993 14.6181 19.4715 14.4591 19.4737C14.2766 19.4763 14.063 19.3182 13.6355 19.002L11.014 17.0627C10.8294 16.9263 10.7371 16.858 10.636 16.8316C10.5467 16.8084 10.4529 16.8084 10.3637 16.8316C10.2625 16.858 10.1703 16.9263 9.98568 17.0627L7.36418 19.002C6.93673 19.3182 6.72301 19.4763 6.54054 19.4737C6.38162 19.4715 6.23177 19.3993 6.13089 19.2764C6.01504 19.1354 6.0054 18.8698 5.98611 18.3384L5.86782 15.0797C5.8595 14.8503 5.85533 14.7356 5.81286 14.6401C5.77537 14.5558 5.71692 14.4824 5.64306 14.4272C5.55941 14.3645 5.4485 14.3349 5.2267 14.2757L2.07601 13.4353C1.56228 13.2983 1.30542 13.2298 1.19372 13.0854C1.09643 12.9597 1.05943 12.7976 1.09254 12.6421C1.13056 12.4637 1.33226 12.2905 1.73566 11.9441L4.20967 9.81985C4.38384 9.67029 4.47091 9.59551 4.51911 9.5028C4.56164 9.42089 4.58251 9.32946 4.5797 9.23729C4.57654 9.13279 4.53052 9.02765 4.43849 8.81736L3.13116 5.83002C2.91799 5.34293 2.81141 5.09939 2.8546 4.92208C2.89221 4.76766 2.9959 4.63763 3.13809 4.5666C3.30133 4.48504 3.5625 4.53475 4.08481 4.63418L7.28815 5.24399C7.51365 5.28692 7.62641 5.30838 7.72896 5.28823C7.8195 5.27044 7.90398 5.22977 7.97434 5.17007C8.05403 5.10246 8.10754 5.00092 8.21458 4.79784L9.73509 1.91316Z" stroke="black" stroke-width="2.11512" stroke-linecap="round" stroke-linejoin="round"/>
</svg>
