<svg width="42" height="42" viewBox="0 0 42 42" fill="none" xmlns="http://www.w3.org/2000/svg">
<circle cx="21" cy="21" r="18.375" fill="#0B0006"/>
<path d="M5.25 15.75H6.08391L9.33616 27.2344H8.50225L5.25 15.75Z" fill="#FFFDFE"/>
<path d="M7.50153 15.75H8.33544L11.5877 27.2344H10.7538L7.50153 15.75Z" fill="#FFFDFE"/>
<path d="M12.2537 15.75H9.75195L13.0042 27.2344H15.5059L17.7283 19.7695L20.0924 27.2344H22.4691L25.5962 15.75H23.1362L21.1907 23.0918L18.925 15.75H16.5483L14.2968 22.9645L12.2537 15.75Z" fill="#FEDB32"/>
<path d="M25.5962 21.082L27.0139 15.75H28.098V23.0508C28.098 24.1381 28.994 25.0195 30.0994 25.0195H30.9333C32.0386 25.0195 32.9347 24.1381 32.9347 23.0508V15.75H35.4364V23.0508C35.4364 25.5425 33.3829 27.5625 30.8499 27.5625H30.1827C27.6497 27.5625 25.5962 25.5425 25.5962 23.0508V21.082Z" fill="#FEDB32"/>
</svg>
