<svg width="22" height="22" viewBox="0 0 22 22" fill="none" xmlns="http://www.w3.org/2000/svg">
<path d="M14.5682 16.5C14.5682 16.7531 14.363 16.9583 14.1098 16.9583H6.5384C6.28526 16.9583 6.08007 16.7531 6.08007 16.5C6.08007 16.2469 6.28526 16.0417 6.5384 16.0417H14.1098C14.363 16.0417 14.5682 16.2469 14.5682 16.5ZM14.6829 8.70833C14.6829 11.2356 12.6269 13.2917 10.0997 13.2917H10.0897C7.56255 13.2917 5.50651 11.2356 5.50651 8.70833C5.50651 6.18104 7.5625 4.125 10.0897 4.125H10.0997C12.6269 4.125 14.6829 6.18104 14.6829 8.70833ZM6.45164 8.25H8.25976V5.95833C8.25976 5.7997 8.28002 5.6457 8.31806 5.49881C7.31615 6.05413 6.60005 7.06516 6.45164 8.25ZM8.31806 11.9179C8.27997 11.771 8.25976 11.617 8.25976 11.4583V9.16667H6.45164C6.60005 10.3515 7.31619 11.3625 8.31806 11.9179ZM11.013 9.16667H9.17638V11.4583C9.17638 11.9638 9.5876 12.375 10.093 12.375C10.6018 12.375 11.013 11.9638 11.013 11.4583V9.16667ZM11.013 5.95833C11.013 5.45288 10.6018 5.04167 10.0963 5.04167C9.5876 5.04167 9.17638 5.45288 9.17638 5.95833V8.25H11.013V5.95833ZM13.7377 9.16667H11.9296V11.4583C11.9296 11.617 11.9093 11.771 11.8713 11.9179C12.8732 11.3625 13.5893 10.3515 13.7377 9.16667ZM13.7377 8.25C13.5893 7.06516 12.8732 6.05413 11.8713 5.49881C11.9094 5.6457 11.9296 5.7997 11.9296 5.95833V8.25H13.7377ZM21.8594 6.42877L17.4361 17.1037V19.7083C17.4361 20.972 16.4081 22 15.1445 22H1.37495C0.616825 22 0 21.3832 0 20.625V1.375C0 0.616825 0.616825 0 1.37495 0H15.1445C16.4081 0 17.4361 1.02804 17.4361 2.29167V2.61571L20.8656 4.03342C21.3185 4.22061 21.6713 4.57288 21.8591 5.02526C22.0468 5.47773 22.047 5.97621 21.8594 6.42877ZM2.75325 0.916667H1.37495C1.12223 0.916667 0.916621 1.12227 0.916621 1.375V20.625C0.916621 20.8777 1.12223 21.0833 1.37495 21.0833H2.75325V0.916667ZM16.5195 2.29167C16.5195 1.53349 15.9027 0.916667 15.1445 0.916667H3.66987V21.0833H15.1445C15.9027 21.0833 16.5195 20.4665 16.5195 19.7083V6.95933C16.5121 6.91272 16.5119 6.86473 16.5195 6.81688V2.93425C16.5192 2.92609 16.5192 2.91803 16.5195 2.90982V2.29167ZM21.0124 5.37662C20.9186 5.15038 20.7421 4.97425 20.5154 4.88056L17.4361 3.60768V6.584L18.1897 6.89558C18.4237 6.99224 18.5349 7.26028 18.4382 7.49425C18.3415 7.72819 18.0734 7.83933 17.8395 7.74272L17.4361 7.57593V14.7092L19.9596 8.61914L19.4721 8.41761C19.2382 8.32095 19.1269 8.05287 19.2236 7.81894C19.3204 7.585 19.5883 7.47372 19.8223 7.57048L20.3106 7.77228L21.0127 6.07787C21.1063 5.85173 21.1062 5.60267 21.0124 5.37662Z" fill="#627193"/>
</svg>
