<svg width="16" height="16" viewBox="0 0 16 16" fill="none" xmlns="http://www.w3.org/2000/svg">
    <path
        d="M14.4618 5.05324L5.25608 14.2589C4.33937 15.1756 1.61815 15.6002 1.01022 14.9923C0.402295 14.3844 0.817229 11.6632 1.73394 10.7465L10.9494 1.5311C11.1766 1.28316 11.4517 1.08386 11.7582 0.94519C12.0646 0.806525 12.3959 0.731355 12.7322 0.724272C13.0684 0.717199 13.4027 0.77832 13.7146 0.903967C14.0266 1.02962 14.3099 1.2172 14.5474 1.45536C14.7849 1.69351 14.9717 1.9773 15.0965 2.28962C15.2212 2.60195 15.2816 2.93631 15.2735 3.27255C15.2655 3.60879 15.1894 3.93996 15.05 4.246C14.9104 4.55203 14.7104 4.82665 14.4618 5.05324Z"
        stroke="#2D2933" stroke-width="1.375" stroke-linecap="round" stroke-linejoin="round" />
</svg>