<svg width="53" height="50" viewBox="0 0 53 50" fill="none" xmlns="http://www.w3.org/2000/svg">
    <path
        d="M46.7503 48.5449L35.7214 37.6998C34.2509 36.2538 34.2509 34.0848 35.7214 32.6388C37.1919 31.1928 39.3977 31.1928 40.8682 32.6388L51.8971 43.4839C53.3676 44.9299 53.3676 47.0989 51.8971 48.5449C50.4266 49.9909 48.2208 49.9909 46.7503 48.5449Z"
        fill="white" />
    <circle cx="18.9942" cy="18.9942" r="18.9942" fill="white" />
    <path fill-rule="evenodd" clip-rule="evenodd"
        d="M19.1402 15.537C19.1125 15.537 19.0848 15.5331 19.0571 15.5331C19.0274 15.5331 19.0017 15.537 18.972 15.537C16.8298 15.4915 15.101 13.743 15.101 11.5889C15.101 9.40706 16.8753 7.63275 19.0571 7.63275C21.2369 7.63275 23.0132 9.40706 23.0132 11.5889C23.0132 13.743 21.2824 15.4915 19.1402 15.537ZM25.0407 16.71C26.6825 14.7953 27.4737 12.1308 26.6212 9.25078C25.8359 6.59228 23.6007 4.49551 20.8987 3.88429C15.728 2.71922 11.1449 6.618 11.1449 11.5889C11.1449 13.5531 11.8866 15.3274 13.0695 16.71C7.96021 18.7969 4.18608 23.6371 3.38892 29.3141C3.22276 30.4989 4.16827 31.5553 5.365 31.5553C6.34216 31.5553 7.16898 30.8372 7.30744 29.868C8.1224 24.1178 13.0359 19.5346 18.972 19.4931C19.0017 19.4931 19.0274 19.5011 19.0571 19.5011C19.0848 19.5011 19.1105 19.4931 19.1402 19.4931C25.0763 19.5346 29.9898 24.1177 30.8048 29.8699C30.9432 30.8372 31.7701 31.5553 32.7492 31.5553C33.9439 31.5553 34.8894 30.4989 34.7233 29.3141C33.9261 23.6371 30.152 18.7988 25.0407 16.71Z"
        fill="#0836C1" />
</svg>