<svg width="21" height="21" viewBox="0 0 21 21" fill="none" xmlns="http://www.w3.org/2000/svg">
<path d="M11.97 10.5L17.115 5.35497C17.3067 5.15936 17.4134 4.89601 17.412 4.62214C17.4106 4.34827 17.3012 4.08601 17.1076 3.89235C16.9139 3.6987 16.6517 3.58929 16.3778 3.5879C16.1039 3.58652 15.8406 3.69327 15.645 3.88497L10.5 9.02997L5.35497 3.88497C5.15936 3.69327 4.89601 3.58652 4.62214 3.5879C4.34827 3.58929 4.08601 3.6987 3.89235 3.89235C3.6987 4.08601 3.58929 4.34827 3.5879 4.62214C3.58652 4.89601 3.69327 5.15936 3.88497 5.35497L9.02997 10.5L3.88497 15.645C3.69327 15.8406 3.58652 16.1039 3.5879 16.3778C3.58929 16.6517 3.6987 16.9139 3.89235 17.1076C4.08601 17.3012 4.34827 17.4106 4.62214 17.412C4.89601 17.4134 5.15936 17.3067 5.35497 17.115L10.5 11.97L15.645 17.115C15.8406 17.3067 16.1039 17.4134 16.3778 17.412C16.6517 17.4106 16.9139 17.3012 17.1076 17.1076C17.3012 16.9139 17.4106 16.6517 17.412 16.3778C17.4134 16.1039 17.3067 15.8406 17.115 15.645L11.97 10.5Z" fill="black"/>
</svg>
