<svg width="18" height="18" viewBox="0 0 18 18" fill="none" xmlns="http://www.w3.org/2000/svg">
    <g clip-path="url(#clip0_249_27)">
        <path
            d="M15.1943 17.871H2.80514C2.09634 17.8695 1.41699 17.5872 0.91579 17.086C0.414588 16.5848 0.132354 15.9055 0.130859 15.1967V4.40183C0.13222 3.69253 0.414765 3.01272 0.916552 2.51141C1.41834 2.01011 2.09842 1.72822 2.80772 1.72754H15.1969C15.9062 1.7289 16.586 2.01144 17.0873 2.51323C17.5886 3.01502 17.8705 3.6951 17.8711 4.4044V15.1941C17.8703 15.9038 17.588 16.5842 17.0862 17.086C16.5844 17.5879 15.904 17.8702 15.1943 17.871ZM2.80514 3.01068C2.43632 3.01109 2.08271 3.15779 1.82191 3.41859C1.56111 3.67939 1.41441 4.033 1.414 4.40183V15.1941C1.41523 15.5625 1.56227 15.9153 1.82296 16.1755C2.08366 16.4358 2.4368 16.5821 2.80514 16.5827H15.1943C15.5622 16.5816 15.9148 16.435 16.175 16.1748C16.4351 15.9146 16.5818 15.562 16.5829 15.1941V4.40183C16.5819 4.03385 16.4353 3.68121 16.1751 3.42101C15.9149 3.1608 15.5623 3.0142 15.1943 3.01325L2.80514 3.01068Z"
            fill="#2D2933" />
        <path
            d="M17.2283 8.91267H0.792271C0.621775 8.91267 0.458262 8.84494 0.337703 8.72438C0.217143 8.60382 0.149414 8.44031 0.149414 8.26981C0.149414 8.09931 0.217143 7.9358 0.337703 7.81524C0.458262 7.69468 0.621775 7.62695 0.792271 7.62695H17.2283C17.3988 7.62695 17.5623 7.69468 17.6829 7.81524C17.8035 7.9358 17.8712 8.09931 17.8712 8.26981C17.8712 8.44031 17.8035 8.60382 17.6829 8.72438C17.5623 8.84494 17.3988 8.91267 17.2283 8.91267Z"
            fill="#2D2933" />
        <path
            d="M4.86454 4.70862C4.7801 4.70869 4.69647 4.69211 4.61845 4.65982C4.54042 4.62754 4.46953 4.58019 4.40982 4.52048C4.35011 4.46077 4.30276 4.38988 4.27048 4.31185C4.23819 4.23383 4.22161 4.1502 4.22168 4.06576V0.771763C4.22168 0.601267 4.28941 0.437754 4.40997 0.317195C4.53053 0.196636 4.69404 0.128906 4.86454 0.128906C5.03503 0.128906 5.19855 0.196636 5.31911 0.317195C5.43966 0.437754 5.50739 0.601267 5.50739 0.771763V4.06576C5.50739 4.23626 5.43966 4.39977 5.31911 4.52033C5.19855 4.64089 5.03503 4.70862 4.86454 4.70862Z"
            fill="#2D2933" />
        <path
            d="M13.136 4.70862C13.0516 4.70869 12.968 4.69211 12.8899 4.65982C12.8119 4.62754 12.741 4.58019 12.6813 4.52048C12.6216 4.46077 12.5742 4.38988 12.542 4.31185C12.5097 4.23383 12.4931 4.1502 12.4932 4.06576V0.771763C12.4932 0.601267 12.5609 0.437754 12.6815 0.317195C12.802 0.196636 12.9655 0.128906 13.136 0.128906C13.3065 0.128906 13.47 0.196636 13.5906 0.317195C13.7111 0.437754 13.7789 0.601267 13.7789 0.771763V4.06576C13.7789 4.23626 13.7111 4.39977 13.5906 4.52033C13.47 4.64089 13.3065 4.70862 13.136 4.70862Z"
            fill="#2D2933" />
    </g>
    <defs>
        <clipPath id="clip0_249_27">
            <rect width="18" height="18" fill="white" />
        </clipPath>
    </defs>
</svg>