<svg width="22" height="22" viewBox="0 0 22 22" fill="none" xmlns="http://www.w3.org/2000/svg">
    <path
        d="M4.58301 7.33398C4.58301 4.74126 4.58301 3.4449 5.38846 2.63944C6.19392 1.83398 7.49028 1.83398 10.083 1.83398H11.9163C14.509 1.83398 15.8054 1.83398 16.6109 2.63944C17.4163 3.4449 17.4163 4.74126 17.4163 7.33398V14.6673C17.4163 17.26 17.4163 18.5564 16.6109 19.3618C15.8054 20.1673 14.509 20.1673 11.9163 20.1673H10.083C7.49028 20.1673 6.19392 20.1673 5.38846 19.3618C4.58301 18.5564 4.58301 17.26 4.58301 14.6673V7.33398Z"
        stroke="#2D2933" stroke-width="1.375" />
    <path
        d="M4.58301 3.73633C3.68918 3.82425 3.08753 4.02295 2.63846 4.47201C1.83301 5.27746 1.83301 6.57383 1.83301 9.1666V12.8333C1.83301 15.426 1.83301 16.7223 2.63846 17.5278C3.08753 17.9769 3.68918 18.1755 4.58301 18.2634"
        stroke="#2D2933" stroke-width="1.375" />
    <path
        d="M17.417 3.73633C18.3108 3.82425 18.9124 4.02295 19.3615 4.47201C20.167 5.27746 20.167 6.57383 20.167 9.1666V12.8333C20.167 15.426 20.167 16.7223 19.3615 17.5278C18.9124 17.9769 18.3108 18.1755 17.417 18.2634"
        stroke="#2D2933" stroke-width="1.375" />
    <path d="M8.25 11.917H13.75" stroke="#2D2933" stroke-width="1.375" stroke-linecap="round" />
    <path d="M8.25 8.25H13.75" stroke="#2D2933" stroke-width="1.375" stroke-linecap="round" />
    <path d="M8.25 15.583H11" stroke="#2D2933" stroke-width="1.375" stroke-linecap="round" />
</svg>