<svg width="22" height="22" viewBox="0 0 22 22" fill="none" xmlns="http://www.w3.org/2000/svg">
<path d="M17.4163 8.25V15.5833C17.4163 17.3118 17.4163 18.176 16.8794 18.713C16.3424 19.25 15.4781 19.25 13.7497 19.25H12.833H9.16634H8.24967C6.52119 19.25 5.65695 19.25 5.11998 18.713C4.58301 18.176 4.58301 17.3118 4.58301 15.5833V8.25" stroke="#2D2933" stroke-width="1.83333" stroke-linejoin="round"/>
<path d="M2.75 10.0829L6.875 6.41622L9.78203 3.83222C10.4766 3.21478 11.5234 3.21478 12.218 3.83222L15.125 6.41622L19.25 10.0829" stroke="#2D2933" stroke-width="1.83333" stroke-linecap="round" stroke-linejoin="round"/>
<path d="M9.16699 19.25V15.5833C9.16699 14.5708 9.98778 13.75 11.0003 13.75C12.0129 13.75 12.8337 14.5708 12.8337 15.5833V19.25" stroke="#2D2933" stroke-width="1.83333" stroke-linecap="round" stroke-linejoin="round"/>
</svg>
