<svg width="22" height="22" viewBox="0 0 22 22" fill="none" xmlns="http://www.w3.org/2000/svg">
    <path
        d="M14.6663 20.167V11.917C14.6663 10.6206 14.6663 9.97247 14.2636 9.56968C13.8609 9.16699 13.2127 9.16699 11.9163 9.16699H10.083C8.78665 9.16699 8.13846 9.16699 7.73574 9.56968C7.33301 9.97247 7.33301 10.6206 7.33301 11.917V20.167"
        stroke="#627193" stroke-width="1.375" stroke-linecap="round" />
    <path
        d="M7.33301 20.167C7.33301 18.8706 7.33301 18.2225 6.93028 17.8197C6.52755 17.417 5.87937 17.417 4.58301 17.417C3.28665 17.417 2.63846 17.417 2.23574 17.8197C1.83301 18.2225 1.83301 18.8706 1.83301 20.167"
        stroke="#627193" stroke-width="1.375" stroke-linecap="round" />
    <path
        d="M20.167 20.167V17.417C20.167 16.1206 20.167 15.4725 19.7643 15.0697C19.3615 14.667 18.7133 14.667 17.417 14.667C16.1206 14.667 15.4725 14.667 15.0697 15.0697C14.667 15.4725 14.667 16.1206 14.667 17.417V20.167"
        stroke="#627193" stroke-width="1.375" stroke-linecap="round" />
    <path
        d="M10.2171 2.77031C10.5654 2.14544 10.7396 1.83301 11 1.83301C11.2604 1.83301 11.4346 2.14544 11.7829 2.77031L11.873 2.93197C11.9719 3.10954 12.0214 3.19833 12.0986 3.2569C12.1758 3.31549 12.2719 3.33723 12.4641 3.38072L12.6391 3.42032C13.3155 3.57336 13.6537 3.64989 13.7342 3.90863C13.8147 4.16738 13.5841 4.437 13.123 4.97624L13.0036 5.11575C12.8727 5.26898 12.8071 5.34559 12.7776 5.44038C12.7482 5.53517 12.7581 5.63739 12.7779 5.84184L12.7959 6.02797C12.8656 6.74742 12.9005 7.10715 12.6899 7.26707C12.4791 7.42698 12.1625 7.28118 11.5292 6.98958L11.3654 6.91414C11.1853 6.83127 11.0954 6.78984 11 6.78984C10.9046 6.78984 10.8146 6.83127 10.6346 6.91414L10.4708 6.98958C9.83748 7.28118 9.52086 7.42698 9.31012 7.26707C9.09951 7.10715 9.13436 6.74742 9.20406 6.02797L9.22212 5.84184C9.24192 5.63739 9.25182 5.53517 9.2224 5.44038C9.19288 5.34559 9.12737 5.26898 8.99633 5.11575L8.87702 4.97624C8.41589 4.437 8.18533 4.16738 8.26579 3.90863C8.34626 3.64989 8.68446 3.57336 9.36091 3.42032L9.5359 3.38072C9.72812 3.33723 9.82419 3.31549 9.90137 3.2569C9.97856 3.19833 10.0281 3.10954 10.127 2.93197L10.2171 2.77031Z"
        stroke="#627193" stroke-width="1.375" />
</svg>