<svg width="24" height="24" viewBox="0 0 24 24" fill="none" xmlns="http://www.w3.org/2000/svg">
    <path d="M6 19H18" stroke="white" stroke-width="1.63636" stroke-linecap="round"
        stroke-linejoin="round" />
    <path
        d="M16.5593 15.9997H7.44233C6.58147 15.9997 5.81719 15.4488 5.54496 14.6322L3.70792 9.12102C3.44698 8.3382 4.26276 7.63068 5.00081 7.9997L5.71148 8.35503C6.48145 8.74002 7.4114 8.58911 8.02012 7.98039L10.5866 5.41391C11.3676 4.63287 12.634 4.63286 13.415 5.41391L15.9815 7.98039C16.5902 8.58911 17.5202 8.74002 18.2901 8.35503L19.0008 7.9997C19.7389 7.63068 20.5546 8.3382 20.2937 9.12102L18.4566 14.6322C18.1844 15.4488 17.4201 15.9997 16.5593 15.9997Z"
        stroke="white" stroke-width="1.63636" stroke-linejoin="round" />
</svg>