<svg width="24" height="24" viewBox="0 0 24 24" fill="none" xmlns="http://www.w3.org/2000/svg">
    <path d="M6 19H18" stroke="black" stroke-width="1.63636" stroke-linecap="round"
        stroke-linejoin="round" />
    <path
        d="M16.5586 16.0007H7.44159C6.58073 16.0007 5.81645 15.4498 5.54422 14.6332L3.70718 9.122C3.44624 8.33918 4.26202 7.63166 5.00007 8.00068L5.71074 8.35601C6.48071 8.741 7.41066 8.59009 8.01938 7.98137L10.5859 5.41489C11.3669 4.63385 12.6333 4.63384 13.4143 5.41489L15.9808 7.98137C16.5895 8.59009 17.5195 8.741 18.2894 8.35601L19.0001 8.00068C19.7382 7.63166 20.5539 8.33918 20.293 9.122L18.4559 14.6332C18.1837 15.4498 17.4194 16.0007 16.5586 16.0007Z"
        stroke="black" stroke-width="1.63636" stroke-linejoin="round" />
</svg>