<?xml version="1.0" standalone="no"?>
<!DOCTYPE svg PUBLIC "-//W3C//DTD SVG 20010904//EN"
 "http://www.w3.org/TR/2001/REC-SVG-20010904/DTD/svg10.dtd">
<svg version="1.0" xmlns="http://www.w3.org/2000/svg"
 width="500.000000pt" height="500.000000pt" viewBox="0 0 500.000000 500.000000"
 preserveAspectRatio="xMidYMid meet">

<g transform="translate(0.000000,500.000000) scale(0.100000,-0.100000)"
fill="#000000" stroke="none">
<path d="M2335 3875 c-312 -56 -597 -302 -723 -625 -207 -531 19 -1154 503
-1385 288 -137 606 -116 880 60 204 130 362 353 430 607 149 554 -136 1141
-635 1311 -139 48 -306 59 -455 32z"/>
<path d="M2283 1565 c-555 -72 -1025 -409 -1282 -921 l-49 -99 26 -23 c41 -34
238 -164 317 -209 178 -99 442 -199 655 -247 135 -30 434 -66 552 -66 122 0
416 36 548 66 326 74 650 220 912 412 l88 63 -26 52 c-83 170 -132 249 -222
362 -364 454 -938 684 -1519 610z"/>
</g>
</svg>
